<svg width="126" height="152" viewBox="0 0 126 152" fill="none" xmlns="http://www.w3.org/2000/svg">
<path fill-rule="evenodd" clip-rule="evenodd" d="M112.036 60.8986C112.036 88.0212 90.0486 110.008 62.9258 110.008C50.2599 110.008 38.7139 105.214 30.0039 97.3401C31.6162 97.7462 33.2572 98.0384 34.9164 98.2124C37.7334 98.508 40.5619 98.459 43.3476 98.0741C49.1937 101.159 55.8558 102.906 62.9258 102.906C86.1259 102.906 104.933 84.0985 104.933 60.8986C104.933 45.8575 97.028 32.6627 85.1457 25.2424V65.0029H85.0834C85.1247 65.6108 85.1457 66.2243 85.1457 66.8428C85.1457 81.6156 73.1698 93.5914 58.3969 93.5914C57.8929 93.5914 57.3921 93.5774 56.895 93.5499C60.9009 91.1494 64.4541 87.9812 67.3613 84.1975C69.1922 81.8146 70.7395 79.2233 71.9779 76.4812C73.912 73.761 75.0492 70.4347 75.0492 66.8428C75.0492 66.2428 75.0175 65.6502 74.9556 65.0666V65.0029V45.8343L75.0078 45.8756L75.0771 20.4807V13.3036C96.3227 18.7113 112.036 37.9699 112.036 60.8986Z" fill="#251F21"/>
<path fill-rule="evenodd" clip-rule="evenodd" d="M27.9657 95.4335C30.2785 96.1985 32.6669 96.7152 35.0956 96.9701C37.1953 97.1903 39.3015 97.2124 41.3902 97.0402C29.1581 89.6972 20.9726 76.3036 20.9726 60.9982C20.9726 37.7982 39.78 18.991 62.9801 18.991C65.9823 18.991 68.911 19.3059 71.7348 19.9045V12.6663C68.8939 12.1552 65.9682 11.8883 62.9801 11.8883C35.8573 11.8883 13.8699 33.8755 13.8699 60.9982C13.8699 74.4123 19.248 86.5703 27.9657 95.4335ZM71.6133 43.9337C67.7273 41.733 63.236 40.4768 58.4512 40.4768C43.6783 40.4768 31.7024 52.4525 31.7024 67.2254C31.7024 80.7155 41.6888 91.8731 54.6722 93.7091C59.2158 91.3064 63.2256 87.9141 66.4251 83.7499C67.2804 82.6368 68.0716 81.4766 68.7959 80.2756C65.9548 82.5307 62.3603 83.8776 58.4512 83.8776C49.2544 83.8776 41.7988 76.4222 41.7988 67.2254C41.7988 58.0286 49.2544 50.5731 58.4512 50.5731C63.804 50.5731 68.5669 53.0987 71.6133 57.0232V43.9337Z" fill="#FEAE11"/>
<path fill-rule="evenodd" clip-rule="evenodd" d="M125.96 62.9795C125.96 81.2901 118.146 97.7756 105.67 109.283L63.0509 152L20.3701 109.357C19.0756 108.167 17.831 106.924 16.6398 105.63L16.5887 105.579H16.5928C6.28991 94.3663 0 79.4074 0 62.9795C0 28.1969 28.1971 0 62.98 0C97.7629 0 125.96 28.1969 125.96 62.9795ZM63.1215 117.184C93.4491 117.184 118.034 92.5992 118.034 62.2719C118.034 31.9446 93.4491 7.3594 63.1215 7.3594C32.794 7.3594 8.20863 31.9446 8.20863 62.2719C8.20863 92.5992 32.794 117.184 63.1215 117.184Z" fill="#251F21"/>
</svg>

